<svg xmlns="http://www.w3.org/2000/svg" viewBox="0 0 330.1 350"><defs><style>      .cls-1 {        fill: #f90;      }      .cls-2 {        fill: #f60;      }    </style></defs><g><g id="Layer_1"><g><path class="cls-1" d="M237.1,252.6c-2.3-.2-4.6,0-6.6.8-1,.4-2,.7-3,.9-1,.2-2.2.5-3,.5-5.3,0-9.9-3-12.1-7.4-.3-.7-.7-1.8-1-2.7-.2-.7-.4-1.5-.5-2.3-1.2-7.1-7.3-12.4-14.7-12.4s-4,.4-5.7,1.1c-.3.1-.6.3-.9.4-1.4.5-2.9.8-4.5.8-5.6,0-10.3-3.3-12.4-8.1-.6-1.3-1.1-4.3-1.1-4.3-1.1-7.1-7.3-12.5-14.7-12.5s-3.5.3-5.1.9c0,0-3.8,1.3-5.9,1.3-5.8,0-10.7-3.6-12.6-8.6-.5-1.3-1-4.1-1-4.1-.7-3.4-2.5-6.4-5-8.6-.7-.6-1.4-1.3-2-2-.7-.8-1.5-1.8-2-2.5-1.2-2-1.8-4.3-1.8-6.8s.9-5.6,2.4-7.8c.3-.5.9-1.1,1.4-1.7.6-.6,1.3-1.2,1.9-1.8,3.3-2.7,5.3-6.8,5.3-11.4s-2.1-8.7-5.4-11.4c-.7-.6-1.4-1.2-2.1-1.9-.3-.3-.5-.5-.7-.7-1.9-2.3-3-5.3-3-8.5s.6-4.7,1.8-6.7c.5-.8,1.4-1.9,2.2-2.8.6-.6,1.2-1.2,1.8-1.7,3.5-2.9,5.6-7.4,5.3-12.4-.5-7.6-6.7-13.6-14.3-13.9-8.5-.3-15.5,6.5-15.5,14.9s2.1,8.7,5.3,11.4c.7.6,1.3,1.1,1.9,1.8.6.7,1.4,1.5,1.8,2.2,1.3,2.1,2.1,4.6,2.1,7.3s-1.1,6.2-3,8.5c-.2.2-.4.5-.7.7-.7.7-1.4,1.3-2.1,1.9-3.3,2.7-5.3,6.8-5.3,11.4s2.1,8.7,5.4,11.5c.7.6,1.3,1.1,1.9,1.8.4.5.9.9,1.1,1.3,1.7,2.3,2.7,5.1,2.7,8.1s-.9,5.4-2.3,7.6c-.3.5-1,1.2-1.5,1.8-.6.6-1.2,1.2-1.9,1.8-3.5,2.9-5.6,7.4-5.3,12.4.5,7.5,6.6,13.6,14.2,14,2.3.1,4.4-.3,6.4-1.1,1.3-.5,2.6-.9,4-1.1.6,0,1.1-.1,1.5-.1,4.7,0,8.9,2.4,11.3,6.1.2.3.5.8.7,1.3.7,1.6,1.2,3.2,1.5,5,1.1,7.1,7.3,12.6,14.7,12.6s3.7-.4,5.4-1c1.2-.5,2.4-.8,3.6-1,.8-.1,1.6-.2,2.1-.2,4.9,0,9.2,2.6,11.6,6.5.3.5.7,1.3,1,2.1.5,1.2.8,2.5,1,3.8,1.2,7,7.3,12.4,14.7,12.4s3.7-.4,5.3-1c1.4-.5,2.8-.9,4.3-1.1.5,0,1-.1,1.5-.1,5.4,0,10.1,3.2,12.3,7.8.2.5.5,1.3.7,2,.2.8.4,1.7.6,2.5,1.2,7.1,7.3,12.5,14.7,12.5s15.5-7.3,14.9-16c-.5-7.2-6.2-13-13.3-13.8M117.4,78.6c8.2,0,14.9-6.7,14.9-14.9s-6.7-14.9-14.9-14.9-14.9,6.7-14.9,14.9,6.7,14.9,14.9,14.9"></path><path class="cls-1" d="M196.2,278.1c-1.4,0-2.8.3-4,.7-1.1.4-2.2.7-3.3.7-.2,0-.4,0-.6,0-8.1,0-15.1-4.5-18.7-11.2h0c-.5-1-.8-2-1-3-1-5.6-5.9-9.9-11.7-9.9s-2.7.2-3.9.7c-1.1.4-2.2.7-3.4.8-.2,0-.4,0-.6,0-8.3,0-15.4-4.6-18.8-11.5h0c-.4-.8-.7-1.7-.8-2.6-1-5.7-5.8-10-11.8-10s-2.7.2-3.9.7c-1,.3-2,.6-3,.6-.3,0-.7,0-1,0-8.8,0-16.4-6.3-19.6-14l-.4-1.2c-.5-1.7-1.3-3.3-2.5-4.6-.9-1-1.7-2.1-2.5-3.2-.7-1.1-1.4-2.3-1.8-3-1.3-2.8-2.3-5.8-2.3-8.6s.8-6.6,2.2-9.4c0-.2.2-.4.3-.6.8-1.4,1.8-2.7,3.1-3.8,2.5-2.3,4-5.6,3.8-9.3-.3-6.2-5.3-11.2-11.5-11.4-6.8-.3-12.5,5.2-12.5,12s1.5,6.6,3.9,8.8c1.3,1.2,2.5,2.6,3.4,4.2.2.3.3.6.4.8,1.2,2.7,1.9,5.7,1.9,8.8s-.2,8.8-4.6,12.9c-2.9,2.8-5.3,6.3-4.9,10.8.5,5.1,4.2,9.4,9.2,10.6,2.5.6,4.7.3,6.8-.4,1.1-.4,2.2-.7,3.3-.7.2,0,.4,0,.6,0,8,0,15.1,4.3,18.7,10.8h0c.4.8.7,1.7.8,2.6.7,6,5.7,10.6,11.9,10.6s2.8-.3,4.1-.7c1-.4,2.1-.6,3.1-.7.3,0,.6,0,.8,0,7.7,0,14.5,4.2,18.2,10.3,0,0,0,0,0,.1.7,1.2,1.2,2.5,1.4,3.8,1,5.6,5.9,9.9,11.8,9.9s2.8-.3,4.1-.8c1.2-.5,2.5-.7,3.7-.7,0,0,.1,0,.2,0,7.6,0,14.2,3.9,17.9,9.9,0,0,0,.1,0,.2.8,1.3,1.3,2.8,1.6,4.4,1.1,5.7,6.2,9.9,12.2,9.7,6.2-.3,11.2-5.3,11.5-11.5.3-6.8-5.2-12.5-12-12.5M78.1,143.6c6.6,0,12-5.4,12-12s-5.4-12-12-12-12,5.4-12,12,5.4,12,12,12M78.1,98.3c6.6,0,12-5.4,12-12s-5.4-12-12-12-12,5.4-12,12,5.4,12,12,12"></path><path class="cls-1" d="M117.2,256.7c6.6,0,12-5.4,12-12s-5.4-12-12-12-12,5.4-12,12,5.4,12,12,12"></path><path class="cls-1" d="M38.7,208.6c4.9,0,8.9-4,8.9-9s-4-9-8.9-9-8.9,4-8.9,9,4,9,8.9,9M38.7,163.3c4.9,0,8.9-4.1,8.9-9s-4-9-8.9-9-8.9,4-8.9,9,4,9,8.9,9M38.7,118c4.9,0,8.9-4.1,8.9-9s-4-9-8.9-9-8.9,4-8.9,9,4,9,8.9,9M156.8,303.7c-.3,0-3.1.2-4.1.2-11.3,0-21.1-6.2-26-15.4-.4-.7-1.2-2.2-1.2-2.2-1.4-3.1-4.5-5.2-8.1-5.2s-3,.3-4.2.3c-10.9,0-20.4-5.8-25.5-14.5-.6-1.1-1.8-3.3-1.8-3.3-1.4-3-4.5-5.1-8-5.1s-3.1.2-4.3.2c-11.4,0-21.3-6.4-26.2-15.7-.2-.5-.5-.9-.7-1.4-1.3-3.4-4.5-5.8-8.3-5.8s-8.9,4-8.9,9,4,9,8.9,9,3.2-.2,4.2-.2c10.4,0,19.5,5.3,24.7,13.3.9,1.3,2.3,4.2,2.3,4.2,1.4,3.2,4.5,5.4,8.1,5.4s3.1-.2,4.2-.2c11.1,0,20.6,6,25.7,14.8.5.9,1.5,2.8,1.5,2.8,1.4,3.1,4.5,5.3,8.1,5.3s3.1-.2,4.1-.2c10.8,0,20.2,5.7,25.3,14.2.7,1.1,1.9,3.6,1.9,3.6,1.4,3,4.5,5.1,8,5.1s8.9-4,8.9-9-4-9-8.9-9"></path><path class="cls-2" d="M156.8,55.9c8.2,0,14.9-6.7,14.9-14.9s-6.7-14.9-14.9-14.9-14.9,6.7-14.9,14.9,6.7,14.9,14.9,14.9"></path><path class="cls-2" d="M156.8,101.2c8.2,0,14.9-6.7,14.9-14.9s-6.7-14.9-14.9-14.9-14.9,6.7-14.9,14.9,6.7,14.9,14.9,14.9"></path><path class="cls-2" d="M156.8,146.5c8.2,0,14.9-6.7,14.9-14.9s-6.7-14.9-14.9-14.9-14.9,6.7-14.9,14.9,6.7,14.9,14.9,14.9"></path><path class="cls-2" d="M156.8,191.7c8.2,0,14.9-6.7,14.9-14.9s-6.7-14.9-14.9-14.9-14.9,6.7-14.9,14.9,6.7,14.9,14.9,14.9"></path><path class="cls-2" d="M196.2,78.5c8.2,0,14.9-6.7,14.9-14.9s-6.7-14.9-14.9-14.9-14.9,6.7-14.9,14.9,6.7,14.9,14.9,14.9"></path><path class="cls-2" d="M196.2,123.8c8.2,0,14.9-6.7,14.9-14.9s-6.7-14.9-14.9-14.9-14.9,6.7-14.9,14.9,6.7,14.9,14.9,14.9"></path><path class="cls-2" d="M196.2,169.1c8.2,0,14.9-6.7,14.9-14.9s-6.7-14.9-14.9-14.9-14.9,6.7-14.9,14.9,6.7,14.9,14.9,14.9"></path><path class="cls-2" d="M196.2,214.4c8.2,0,14.9-6.7,14.9-14.9s-6.7-14.9-14.9-14.9-14.9,6.7-14.9,14.9,6.7,14.9,14.9,14.9"></path><path class="cls-2" d="M235.6,101.2c8.2,0,14.9-6.7,14.9-14.9s-6.7-14.9-14.9-14.9-14.9,6.7-14.9,14.9,6.7,14.9,14.9,14.9"></path><path class="cls-2" d="M235.6,146.5c8.2,0,14.9-6.7,14.9-14.9s-6.7-14.9-14.9-14.9-14.9,6.7-14.9,14.9,6.7,14.9,14.9,14.9"></path><path class="cls-2" d="M235.6,191.7c8.2,0,14.9-6.7,14.9-14.9s-6.7-14.9-14.9-14.9-14.9,6.7-14.9,14.9,6.7,14.9,14.9,14.9"></path><path class="cls-2" d="M235.6,237c8.2,0,14.9-6.7,14.9-14.9s-6.7-14.9-14.9-14.9-14.9,6.7-14.9,14.9,6.7,14.9,14.9,14.9"></path><path class="cls-2" d="M274.9,123.8c8.2,0,14.9-6.7,14.9-14.9s-6.7-14.9-14.9-14.9-14.9,6.7-14.9,14.9,6.7,14.9,14.9,14.9"></path><path class="cls-2" d="M274.9,169.1c8.2,0,14.9-6.7,14.9-14.9s-6.7-14.9-14.9-14.9-14.9,6.7-14.9,14.9,6.7,14.9,14.9,14.9"></path><path class="cls-2" d="M274.9,214.4c8.2,0,14.9-6.7,14.9-14.9s-6.7-14.9-14.9-14.9-14.9,6.7-14.9,14.9,6.7,14.9,14.9,14.9"></path><path class="cls-2" d="M274.9,259.7c8.2,0,14.9-6.7,14.9-14.9s-6.7-14.9-14.9-14.9-14.9,6.7-14.9,14.9,6.7,14.9,14.9,14.9"></path><path class="cls-1" d="M117.4,78.6c8.2,0,14.9-6.7,14.9-14.9s-6.7-14.9-14.9-14.9-14.9,6.7-14.9,14.9,6.7,14.9,14.9,14.9"></path><path class="cls-1" d="M196.2,259.6c8.2,0,14.9-6.7,14.9-14.9s-6.7-14.9-14.9-14.9-14.9,6.7-14.9,14.9,6.7,14.9,14.9,14.9"></path></g></g></g></svg>